<svg xmlns="http://www.w3.org/2000/svg" xmlns:xlink="http://www.w3.org/1999/xlink" width="347" zoomAndPan="magnify" viewBox="0 0 260.25 284.999983" height="380" preserveAspectRatio="xMidYMid meet" version="1.0"><defs><clipPath id="442fd409c5"><path d="M 0 24.089844 L 130 24.089844 L 130 284.339844 L 0 284.339844 Z M 0 24.089844 " clip-rule="nonzero"/></clipPath><clipPath id="cc0d9ecb39"><path d="M 129.707031 0.410156 L 259.082031 0.410156 L 259.082031 259.164062 L 129.707031 259.164062 Z M 129.707031 0.410156 " clip-rule="nonzero"/></clipPath></defs><g clip-path="url(#442fd409c5)"><path fill="#000000" d="M 129.9375 210.554688 L 129.9375 284.335938 C 58.191406 284.335938 0 226.144531 0 154.394531 C 0 82.648438 58.191406 24.457031 129.9375 24.457031 L 129.9375 98.1875 C 99.070312 98.34375 74.09375 123.476562 74.09375 154.394531 C 74.09375 185.316406 99.070312 210.398438 129.9375 210.554688 Z M 129.9375 210.554688 " fill-opacity="1" fill-rule="nonzero"/></g><g clip-path="url(#cc0d9ecb39)"><path fill="#000000" d="M 129.542969 73.964844 L 129.542969 0.410156 C 201.070312 0.410156 259.082031 58.425781 259.082031 129.953125 C 259.082031 201.480469 201.070312 259.492188 129.542969 259.492188 L 129.542969 185.988281 C 160.316406 185.832031 185.214844 160.777344 185.214844 129.953125 C 185.214844 99.125 160.316406 74.121094 129.542969 73.964844 Z M 129.542969 73.964844 " fill-opacity="1" fill-rule="nonzero"/></g></svg>